<svg xmlns="http://www.w3.org/2000/svg" viewBox="0 0 1024 1024" role="img" aria-labelledby="title desc">
  <title>Fuse</title>
  <desc>Fuse logomark — script f with barbell inside a red rounded rectangle</desc>

  <!-- Background kept transparent so it looks good in both light and dark themes -->
  <defs>
    <style>
      .mark-black { fill: #111111; }
      .accent-red { fill: #e53935; }
      .accent-red-stroke { stroke: #e53935; fill: none; stroke-width: 40; stroke-linejoin: round; }
      .white { fill: #ffffff; }
    </style>
  </defs>

  <!-- Stylized script `f` constructed from paths for reliability across fonts -->
  <g transform="translate(120,40) scale(0.88)">
    <path class="mark-black" d="M480 72c-94 0-164 24-210 72-46 48-69 121-69 220v36h-92c-18 0-32 14-32 32v64c0 18 14 32 32 32h92v208c0 140-53 210-160 210-14 0-26 12-26 26v54c0 14 12 26 26 26 112 0 198-30 256-91 58-61 88-152 90-273h176c18 0 32-14 32-32v-64c0-18-14-32-32-32H417v-58c0-68 13-118 41-149 28-31 72-47 133-47 38 0 78 6 121 18 14 4 29-5 33-19l20-68c4-14-4-29-18-33-55-16-111-24-167-24z"/>
  </g>

  <!-- Red rounded rectangle with a barbell icon centered horizontally -->
  <g transform="translate(112,360)">
    <!-- Rounded rectangle outline -->
    <rect x="0" y="0" width="800" height="220" rx="40" class="accent-red" opacity="0.9"/>
    <rect x="24" y="24" width="752" height="172" rx="28" fill="#fff" opacity="1"/>

    <!-- Barbell: two plates and a center connector -->
    <g transform="translate(60,52)">
      <rect x="0" y="0" width="180" height="116" rx="14" class="mark-black"/>
      <rect x="520" y="0" width="180" height="116" rx="14" class="mark-black"/>
      <rect x="176" y="42" width="360" height="32" rx="8" class="mark-black"/>
      <rect x="332" y="34" width="48" height="48" rx="8" class="white"/>
    </g>
  </g>
</svg>
